<?xml version="1.0" encoding="UTF-8" standalone="no"?>
<!DOCTYPE svg PUBLIC "-//W3C//DTD SVG 1.1//EN"
 "http://www.w3.org/Graphics/SVG/1.1/DTD/svg11.dtd">
<!-- Generated by graphviz version 2.40.1 (20161225.0304)
 -->
<!-- Title: %3 Pages: 1 -->
<svg width="811pt" height="548pt"
 viewBox="0.00 0.00 811.28 548.00" xmlns="http://www.w3.org/2000/svg" xmlns:xlink="http://www.w3.org/1999/xlink">
<g id="graph0" class="graph" transform="scale(1 1) rotate(0) translate(4 544)">
<title>%3</title>
<polygon fill="#ffffff" stroke="transparent" points="-4,4 -4,-544 807.2843,-544 807.2843,4 -4,4"/>
<!-- [root] aws_cloudfront_distribution.cfd -->
<g id="node1" class="node">
<title>[root] aws_cloudfront_distribution.cfd</title>
<polygon fill="none" stroke="#000000" points="361.2843,-396 170.2843,-396 170.2843,-360 361.2843,-360 361.2843,-396"/>
<text text-anchor="middle" x="265.7843" y="-374.3" font-family="Times,serif" font-size="14.00" fill="#000000">aws_cloudfront_distribution.cfd</text>
</g>
<!-- [root] aws_s3_bucket.a_static_website -->
<g id="node3" class="node">
<title>[root] aws_s3_bucket.a_static_website</title>
<polygon fill="none" stroke="#000000" points="575.7843,-324 383.7843,-324 383.7843,-288 575.7843,-288 575.7843,-324"/>
<text text-anchor="middle" x="479.7843" y="-302.3" font-family="Times,serif" font-size="14.00" fill="#000000">aws_s3_bucket.a_static_website</text>
</g>
<!-- [root] aws_cloudfront_distribution.cfd&#45;&gt;[root] aws_s3_bucket.a_static_website -->
<g id="edge1" class="edge">
<title>[root] aws_cloudfront_distribution.cfd&#45;&gt;[root] aws_s3_bucket.a_static_website</title>
<path fill="none" stroke="#000000" d="M319.5093,-359.9243C348.8916,-350.0387 385.4695,-337.7321 416.2601,-327.3726"/>
<polygon fill="#000000" stroke="#000000" points="417.6754,-330.5893 426.0372,-324.0831 415.4431,-323.9548 417.6754,-330.5893"/>
</g>
<!-- [root] aws_cloudfront_origin_access_identity.oia -->
<g id="node2" class="node">
<title>[root] aws_cloudfront_origin_access_identity.oia</title>
<polygon fill="none" stroke="#000000" points="486.2843,-180 237.2843,-180 237.2843,-144 486.2843,-144 486.2843,-180"/>
<text text-anchor="middle" x="361.7843" y="-158.3" font-family="Times,serif" font-size="14.00" fill="#000000">aws_cloudfront_origin_access_identity.oia</text>
</g>
<!-- [root] provider.aws -->
<g id="node7" class="node">
<title>[root] provider.aws</title>
<polygon fill="none" stroke="#000000" points="361.7843,-108 281.8509,-90 361.7843,-72 441.7177,-90 361.7843,-108"/>
<text text-anchor="middle" x="361.7843" y="-86.3" font-family="Times,serif" font-size="14.00" fill="#000000">provider.aws</text>
</g>
<!-- [root] aws_cloudfront_origin_access_identity.oia&#45;&gt;[root] provider.aws -->
<g id="edge2" class="edge">
<title>[root] aws_cloudfront_origin_access_identity.oia&#45;&gt;[root] provider.aws</title>
<path fill="none" stroke="#000000" d="M361.7843,-143.8314C361.7843,-136.131 361.7843,-126.9743 361.7843,-118.4166"/>
<polygon fill="#000000" stroke="#000000" points="365.2844,-118.4132 361.7843,-108.4133 358.2844,-118.4133 365.2844,-118.4132"/>
</g>
<!-- [root] data.aws_iam_policy_document.s3_policy -->
<g id="node6" class="node">
<title>[root] data.aws_iam_policy_document.s3_policy</title>
<polygon fill="none" stroke="#000000" points="604.2843,-252 355.2843,-252 355.2843,-216 604.2843,-216 604.2843,-252"/>
<text text-anchor="middle" x="479.7843" y="-230.3" font-family="Times,serif" font-size="14.00" fill="#000000">data.aws_iam_policy_document.s3_policy</text>
</g>
<!-- [root] aws_s3_bucket.a_static_website&#45;&gt;[root] data.aws_iam_policy_document.s3_policy -->
<g id="edge3" class="edge">
<title>[root] aws_s3_bucket.a_static_website&#45;&gt;[root] data.aws_iam_policy_document.s3_policy</title>
<path fill="none" stroke="#000000" d="M479.7843,-287.8314C479.7843,-280.131 479.7843,-270.9743 479.7843,-262.4166"/>
<polygon fill="#000000" stroke="#000000" points="483.2844,-262.4132 479.7843,-252.4133 476.2844,-262.4133 483.2844,-262.4132"/>
</g>
<!-- [root] aws_s3_bucket_object.error_page -->
<g id="node4" class="node">
<title>[root] aws_s3_bucket_object.error_page</title>
<polygon fill="none" stroke="#000000" points="580.2843,-396 379.2843,-396 379.2843,-360 580.2843,-360 580.2843,-396"/>
<text text-anchor="middle" x="479.7843" y="-374.3" font-family="Times,serif" font-size="14.00" fill="#000000">aws_s3_bucket_object.error_page</text>
</g>
<!-- [root] aws_s3_bucket_object.error_page&#45;&gt;[root] aws_s3_bucket.a_static_website -->
<g id="edge4" class="edge">
<title>[root] aws_s3_bucket_object.error_page&#45;&gt;[root] aws_s3_bucket.a_static_website</title>
<path fill="none" stroke="#000000" d="M479.7843,-359.8314C479.7843,-352.131 479.7843,-342.9743 479.7843,-334.4166"/>
<polygon fill="#000000" stroke="#000000" points="483.2844,-334.4132 479.7843,-324.4133 476.2844,-334.4133 483.2844,-334.4132"/>
</g>
<!-- [root] aws_s3_bucket_object.index_page -->
<g id="node5" class="node">
<title>[root] aws_s3_bucket_object.index_page</title>
<polygon fill="none" stroke="#000000" points="803.2843,-396 598.2843,-396 598.2843,-360 803.2843,-360 803.2843,-396"/>
<text text-anchor="middle" x="700.7843" y="-374.3" font-family="Times,serif" font-size="14.00" fill="#000000">aws_s3_bucket_object.index_page</text>
</g>
<!-- [root] aws_s3_bucket_object.index_page&#45;&gt;[root] aws_s3_bucket.a_static_website -->
<g id="edge5" class="edge">
<title>[root] aws_s3_bucket_object.index_page&#45;&gt;[root] aws_s3_bucket.a_static_website</title>
<path fill="none" stroke="#000000" d="M645.3019,-359.9243C614.8272,-349.9959 576.857,-337.6255 544.9738,-327.2382"/>
<polygon fill="#000000" stroke="#000000" points="545.8819,-323.853 535.2895,-324.0831 543.7134,-330.5087 545.8819,-323.853"/>
</g>
<!-- [root] data.aws_iam_policy_document.s3_policy&#45;&gt;[root] aws_cloudfront_origin_access_identity.oia -->
<g id="edge6" class="edge">
<title>[root] data.aws_iam_policy_document.s3_policy&#45;&gt;[root] aws_cloudfront_origin_access_identity.oia</title>
<path fill="none" stroke="#000000" d="M450.0079,-215.8314C434.915,-206.6221 416.4086,-195.3301 400.25,-185.4706"/>
<polygon fill="#000000" stroke="#000000" points="401.9106,-182.3838 391.5512,-180.1628 398.2645,-188.3593 401.9106,-182.3838"/>
</g>
<!-- [root] var.bucket_name -->
<g id="node8" class="node">
<title>[root] var.bucket_name</title>
<ellipse fill="none" stroke="#000000" cx="598.7843" cy="-162" rx="94.4839" ry="18"/>
<text text-anchor="middle" x="598.7843" y="-158.3" font-family="Times,serif" font-size="14.00" fill="#000000">[root] var.bucket_name</text>
</g>
<!-- [root] data.aws_iam_policy_document.s3_policy&#45;&gt;[root] var.bucket_name -->
<g id="edge7" class="edge">
<title>[root] data.aws_iam_policy_document.s3_policy&#45;&gt;[root] var.bucket_name</title>
<path fill="none" stroke="#000000" d="M509.813,-215.8314C525.4986,-206.3409 544.84,-194.6386 561.4785,-184.5716"/>
<polygon fill="#000000" stroke="#000000" points="563.6597,-187.3427 570.4037,-179.1715 560.036,-181.3536 563.6597,-187.3427"/>
</g>
<!-- [root] var.AWS_PERSONAL_ACCESS_KEY -->
<g id="node11" class="node">
<title>[root] var.AWS_PERSONAL_ACCESS_KEY</title>
<ellipse fill="none" stroke="#000000" cx="176.7843" cy="-18" rx="176.5689" ry="18"/>
<text text-anchor="middle" x="176.7843" y="-14.3" font-family="Times,serif" font-size="14.00" fill="#000000">[root] var.AWS_PERSONAL_ACCESS_KEY</text>
</g>
<!-- [root] provider.aws&#45;&gt;[root] var.AWS_PERSONAL_ACCESS_KEY -->
<g id="edge14" class="edge">
<title>[root] provider.aws&#45;&gt;[root] var.AWS_PERSONAL_ACCESS_KEY</title>
<path fill="none" stroke="#000000" d="M332.4705,-78.5914C305.3931,-68.0531 264.4783,-52.1296 231.3871,-39.2508"/>
<polygon fill="#000000" stroke="#000000" points="232.4256,-35.8993 221.8371,-35.5341 229.8868,-42.4227 232.4256,-35.8993"/>
</g>
<!-- [root] var.AWS_PERSONAL_SECRET_KEY -->
<g id="node12" class="node">
<title>[root] var.AWS_PERSONAL_SECRET_KEY</title>
<ellipse fill="none" stroke="#000000" cx="547.7843" cy="-18" rx="176.2688" ry="18"/>
<text text-anchor="middle" x="547.7843" y="-14.3" font-family="Times,serif" font-size="14.00" fill="#000000">[root] var.AWS_PERSONAL_SECRET_KEY</text>
</g>
<!-- [root] provider.aws&#45;&gt;[root] var.AWS_PERSONAL_SECRET_KEY -->
<g id="edge15" class="edge">
<title>[root] provider.aws&#45;&gt;[root] var.AWS_PERSONAL_SECRET_KEY</title>
<path fill="none" stroke="#000000" d="M391.2566,-78.5914C418.4804,-68.0531 459.6163,-52.1296 492.8864,-39.2508"/>
<polygon fill="#000000" stroke="#000000" points="494.4258,-42.408 502.488,-35.5341 491.8988,-35.8801 494.4258,-42.408"/>
</g>
<!-- [root] meta.count&#45;boundary (count boundary fixup) -->
<g id="node9" class="node">
<title>[root] meta.count&#45;boundary (count boundary fixup)</title>
<ellipse fill="none" stroke="#000000" cx="324.7843" cy="-450" rx="193.0657" ry="18"/>
<text text-anchor="middle" x="324.7843" y="-446.3" font-family="Times,serif" font-size="14.00" fill="#000000">[root] meta.count&#45;boundary (count boundary fixup)</text>
</g>
<!-- [root] meta.count&#45;boundary (count boundary fixup)&#45;&gt;[root] aws_cloudfront_distribution.cfd -->
<g id="edge8" class="edge">
<title>[root] meta.count&#45;boundary (count boundary fixup)&#45;&gt;[root] aws_cloudfront_distribution.cfd</title>
<path fill="none" stroke="#000000" d="M309.8961,-431.8314C303.0313,-423.454 294.7542,-413.3531 287.2332,-404.1749"/>
<polygon fill="#000000" stroke="#000000" points="289.9184,-401.9297 280.873,-396.4133 284.504,-406.3665 289.9184,-401.9297"/>
</g>
<!-- [root] meta.count&#45;boundary (count boundary fixup)&#45;&gt;[root] aws_s3_bucket_object.error_page -->
<g id="edge9" class="edge">
<title>[root] meta.count&#45;boundary (count boundary fixup)&#45;&gt;[root] aws_s3_bucket_object.error_page</title>
<path fill="none" stroke="#000000" d="M363.0989,-432.2022C383.8077,-422.5827 409.582,-410.6101 431.6357,-400.3658"/>
<polygon fill="#000000" stroke="#000000" points="433.2391,-403.4803 440.8338,-396.0931 430.29,-397.1318 433.2391,-403.4803"/>
</g>
<!-- [root] meta.count&#45;boundary (count boundary fixup)&#45;&gt;[root] aws_s3_bucket_object.index_page -->
<g id="edge10" class="edge">
<title>[root] meta.count&#45;boundary (count boundary fixup)&#45;&gt;[root] aws_s3_bucket_object.index_page</title>
<path fill="none" stroke="#000000" d="M409.6349,-433.752C465.0201,-423.1463 537.7043,-409.2281 596.5937,-397.9514"/>
<polygon fill="#000000" stroke="#000000" points="597.5064,-401.3403 606.6697,-396.022 596.1898,-394.4652 597.5064,-401.3403"/>
</g>
<!-- [root] provider.aws (close) -->
<g id="node10" class="node">
<title>[root] provider.aws (close)</title>
<ellipse fill="none" stroke="#000000" cx="640.7843" cy="-450" rx="105.0817" ry="18"/>
<text text-anchor="middle" x="640.7843" y="-446.3" font-family="Times,serif" font-size="14.00" fill="#000000">[root] provider.aws (close)</text>
</g>
<!-- [root] provider.aws (close)&#45;&gt;[root] aws_cloudfront_distribution.cfd -->
<g id="edge11" class="edge">
<title>[root] provider.aws (close)&#45;&gt;[root] aws_cloudfront_distribution.cfd</title>
<path fill="none" stroke="#000000" d="M570.6896,-436.5418C514.1455,-425.6854 433.7652,-410.2523 369.7299,-397.9575"/>
<polygon fill="#000000" stroke="#000000" points="370.0797,-394.4609 359.5991,-396.0124 368.7597,-401.3353 370.0797,-394.4609"/>
</g>
<!-- [root] provider.aws (close)&#45;&gt;[root] aws_s3_bucket_object.error_page -->
<g id="edge12" class="edge">
<title>[root] provider.aws (close)&#45;&gt;[root] aws_s3_bucket_object.error_page</title>
<path fill="none" stroke="#000000" d="M603.037,-433.1192C581.0473,-423.2853 553.0617,-410.77 529.3172,-400.1513"/>
<polygon fill="#000000" stroke="#000000" points="530.6672,-396.9211 520.1095,-396.0336 527.8094,-403.3112 530.6672,-396.9211"/>
</g>
<!-- [root] provider.aws (close)&#45;&gt;[root] aws_s3_bucket_object.index_page -->
<g id="edge13" class="edge">
<title>[root] provider.aws (close)&#45;&gt;[root] aws_s3_bucket_object.index_page</title>
<path fill="none" stroke="#000000" d="M655.9248,-431.8314C662.906,-423.454 671.3234,-413.3531 678.9719,-404.1749"/>
<polygon fill="#000000" stroke="#000000" points="681.7268,-406.3362 685.4399,-396.4133 676.3493,-401.8548 681.7268,-406.3362"/>
</g>
<!-- [root] root -->
<g id="node13" class="node">
<title>[root] root</title>
<ellipse fill="none" stroke="#000000" cx="482.7843" cy="-522" rx="47.3916" ry="18"/>
<text text-anchor="middle" x="482.7843" y="-518.3" font-family="Times,serif" font-size="14.00" fill="#000000">[root] root</text>
</g>
<!-- [root] root&#45;&gt;[root] meta.count&#45;boundary (count boundary fixup) -->
<g id="edge16" class="edge">
<title>[root] root&#45;&gt;[root] meta.count&#45;boundary (count boundary fixup)</title>
<path fill="none" stroke="#000000" d="M452.3203,-508.1177C429.7982,-497.8544 398.6832,-483.6754 372.8251,-471.892"/>
<polygon fill="#000000" stroke="#000000" points="374.113,-468.6327 363.5619,-467.6708 371.2103,-475.0025 374.113,-468.6327"/>
</g>
<!-- [root] root&#45;&gt;[root] provider.aws (close) -->
<g id="edge17" class="edge">
<title>[root] root&#45;&gt;[root] provider.aws (close)</title>
<path fill="none" stroke="#000000" d="M513.2483,-508.1177C536.2496,-497.6361 568.2134,-483.0703 594.3868,-471.1432"/>
<polygon fill="#000000" stroke="#000000" points="596.092,-474.2125 603.7403,-466.8808 593.1892,-467.8427 596.092,-474.2125"/>
</g>
</g>
</svg>
